<?xml version="1.0" encoding="UTF-8"?>
<svg id="Layer_1" data-name="Layer 1" xmlns="http://www.w3.org/2000/svg" viewBox="0 0 244.66 252.42">
  <defs>
    <style>
      .cls-1 {
        stroke-width: 0px;
      }
    </style>
  </defs>
  <g>
    <path class="cls-1" d="m119.67,9.89h-2.03V2.06h-.05l-2.24,1.4v-1.79l2.41-1.54h1.91v9.75Z"/>
    <path class="cls-1" d="m121.92,8.42l3.5-3.22c.92-.88,1.4-1.41,1.4-2.18,0-.86-.66-1.4-1.55-1.4s-1.51.58-1.51,1.51h-1.93c-.01-1.91,1.4-3.12,3.46-3.12s3.47,1.19,3.47,2.88c0,1.1-.54,2.02-2.55,3.84l-1.48,1.44v.05h4.16v1.67h-6.98v-1.47Z"/>
  </g>
  <path class="cls-1" d="m183.48,27.88h-2.03v-7.82h-.05l-2.24,1.4v-1.79l2.41-1.54h1.91v9.75Z"/>
  <g>
    <path class="cls-1" d="m62.54,27.88h-2.03v-7.82h-.05l-2.24,1.4v-1.79l2.41-1.54h1.91v9.75Z"/>
    <path class="cls-1" d="m69,27.88h-2.03v-7.82h-.05l-2.24,1.4v-1.79l2.41-1.54h1.91v9.75Z"/>
  </g>
  <path class="cls-1" d="m221.71,72.03l3.5-3.22c.92-.88,1.4-1.41,1.4-2.18,0-.86-.66-1.4-1.55-1.4s-1.51.58-1.51,1.51h-1.93c-.01-1.91,1.4-3.12,3.46-3.12s3.47,1.19,3.47,2.88c0,1.1-.54,2.02-2.55,3.84l-1.48,1.44v.05h4.16v1.67h-6.98v-1.47Z"/>
  <g>
    <path class="cls-1" d="m14.64,73.49h-2.03v-7.82h-.05l-2.24,1.4v-1.79l2.41-1.54h1.91v9.75Z"/>
    <path class="cls-1" d="m16.77,68.62c0-3.19,1.48-5.01,3.92-5.01s3.92,1.83,3.92,5.01-1.48,5.01-3.92,5.01-3.92-1.82-3.92-5.01Zm5.76,0c0-2.22-.71-3.35-1.85-3.35s-1.85,1.13-1.85,3.35c-.01,2.25.71,3.34,1.85,3.34s1.86-1.09,1.85-3.34Z"/>
  </g>
  <path class="cls-1" d="m219.86,185.13l4.12-6.42h2.55v6.4h1.24v1.63h-1.24v1.72h-1.93v-1.72h-4.74v-1.6Zm4.77-.03v-4.18h-.09l-2.63,4.09v.08h2.72Z"/>
  <path class="cls-1" d="m16.81,185.83c0-1.23.94-2.22,2.15-2.41v-.07c-1.05-.2-1.78-1.09-1.78-2.15,0-1.52,1.45-2.63,3.45-2.63s3.45,1.1,3.46,2.63c-.01,1.08-.75,1.95-1.78,2.15v.07c1.19.19,2.14,1.19,2.14,2.41,0,1.59-1.6,2.76-3.82,2.76s-3.83-1.17-3.83-2.76Zm5.54-.2c0-.85-.71-1.47-1.71-1.47s-1.72.62-1.71,1.47c-.01.84.67,1.41,1.71,1.41s1.71-.58,1.71-1.41Zm-.23-4.23c0-.75-.61-1.29-1.48-1.29s-1.47.53-1.47,1.29.61,1.33,1.47,1.33,1.48-.55,1.48-1.33Z"/>
  <path class="cls-1" d="m177.41,231.66h1.97c.04.77.74,1.28,1.59,1.28,1.01,0,1.72-.71,1.72-1.72s-.73-1.75-1.75-1.76c-.73,0-1.24.27-1.54.82h-1.83l.53-5.62h6.01v1.66h-4.34l-.27,2.46h.08c.36-.49,1.09-.82,1.95-.82,1.79,0,3.12,1.33,3.12,3.21,0,1.97-1.49,3.38-3.69,3.38-2.03,0-3.52-1.2-3.56-2.88Z"/>
  <path class="cls-1" d="m65.58,226.38v-.07h-4.78v-1.66h6.88v1.68l-4.11,8.07h-2.1l4.11-8.03Z"/>
  <path class="cls-1" d="m237.17,127.89h2.05c.04.73.74,1.21,1.68,1.21s1.67-.55,1.66-1.33c.01-.79-.7-1.36-1.85-1.36h-.9v-1.5h.9c.96,0,1.63-.53,1.63-1.29s-.57-1.25-1.43-1.25-1.58.49-1.6,1.23h-1.94c.03-1.68,1.55-2.84,3.54-2.84s3.39,1.2,3.38,2.75c.01,1.09-.75,1.87-1.85,2.06v.08c1.43.18,2.22,1.05,2.21,2.26.01,1.67-1.58,2.87-3.77,2.87s-3.68-1.19-3.72-2.88Z"/>
  <path class="cls-1" d="m7.62,125.51c.01,3.31-1.56,5.27-4.01,5.27-1.97,0-3.3-1.23-3.5-2.88h1.99c.16.71.73,1.14,1.51,1.14,1.33,0,2.03-1.19,2.03-3.14h-.08c-.46.86-1.41,1.37-2.5,1.37-1.75,0-3.04-1.32-3.06-3.14,0-1.97,1.48-3.39,3.69-3.38,2.02.01,3.93,1.21,3.93,4.75Zm-5.64-1.43c0,.96.71,1.71,1.71,1.71s1.75-.78,1.75-1.72c-.01-.93-.74-1.72-1.74-1.72s-1.74.77-1.72,1.74Z"/>
  <path class="cls-1" d="m118.75,247.64c0-3.29,1.58-5.24,4.01-5.24,1.97,0,3.3,1.24,3.5,2.84h-1.99c-.16-.69-.73-1.1-1.51-1.1-1.32,0-2.02,1.2-2.03,3.11h.09c.44-.86,1.41-1.37,2.49-1.37,1.75,0,3.06,1.32,3.06,3.15,0,1.98-1.49,3.41-3.69,3.39-2.02-.01-3.93-1.21-3.93-4.78Zm5.66,1.44c0-.97-.71-1.74-1.71-1.74s-1.75.78-1.76,1.74c.01.96.74,1.74,1.74,1.74s1.74-.75,1.74-1.74Z"/>
  <g>
    <g>
      <g>
        <rect class="cls-1" x="12.88" y="124.54" width="85.13" height="3.59"/>
        <rect class="cls-1" x="146.48" y="124.54" width="85.13" height="3.59"/>
      </g>
      <g>
        <rect class="cls-1" x="120.46" y="150.57" width="3.59" height="85.13"/>
        <rect class="cls-1" x="120.46" y="16.96" width="3.59" height="85.13"/>
      </g>
    </g>
    <g>
      <g>
        <rect class="cls-1" x="26.23" y="156.56" width="81.4" height="3.43" transform="translate(-70.17 54.67) rotate(-30)"/>
        <rect class="cls-1" x="136.86" y="92.68" width="81.41" height="3.43" transform="translate(-23.41 101.43) rotate(-30)"/>
      </g>
      <g>
        <rect class="cls-1" x="152.47" y="140.95" width="3.43" height="81.41" transform="translate(-70.17 101.43) rotate(-30)"/>
        <rect class="cls-1" x="88.6" y="30.31" width="3.43" height="81.4" transform="translate(-23.41 54.67) rotate(-30)"/>
      </g>
    </g>
    <g>
      <g>
        <rect class="cls-1" x="49.61" y="179.94" width="81.4" height="3.43" transform="translate(-112.16 169.04) rotate(-60)"/>
        <rect class="cls-1" x="113.48" y="69.3" width="81.41" height="3.43" transform="translate(15.59 169.04) rotate(-60)"/>
      </g>
      <g>
        <rect class="cls-1" x="175.85" y="117.57" width="3.43" height="81.41" transform="translate(-48.28 232.91) rotate(-60)"/>
        <rect class="cls-1" x="65.22" y="53.69" width="3.43" height="81.4" transform="translate(-48.28 105.16) rotate(-60)"/>
      </g>
    </g>
    <g>
      <g>
        <g>
          <rect class="cls-1" x="19.85" y="141.15" width="81.4" height="3.43" transform="translate(-34.91 20.54) rotate(-15)"/>
          <rect class="cls-1" x="143.25" y="108.09" width="81.41" height="3.43" transform="translate(-22.15 51.35) rotate(-15)"/>
        </g>
        <g>
          <rect class="cls-1" x="137.07" y="147.33" width="3.43" height="81.41" transform="translate(-43.94 42.33) rotate(-15)"/>
          <rect class="cls-1" x="104" y="23.93" width="3.43" height="81.4" transform="translate(-13.13 29.56) rotate(-15)"/>
        </g>
      </g>
      <g>
        <g>
          <rect class="cls-1" x="36.38" y="169.78" width="81.4" height="3.43" transform="translate(-98.69 104.74) rotate(-45)"/>
          <rect class="cls-1" x="126.71" y="79.45" width="81.41" height="3.43" transform="translate(-8.36 142.15) rotate(-45)"/>
        </g>
        <g>
          <rect class="cls-1" x="165.7" y="130.8" width="3.43" height="81.41" transform="translate(-72.23 168.61) rotate(-45)"/>
          <rect class="cls-1" x="75.37" y="40.46" width="3.43" height="81.4" transform="translate(-34.82 78.28) rotate(-45)"/>
        </g>
      </g>
      <g>
        <g>
          <rect class="cls-1" x="65.02" y="186.32" width="81.4" height="3.43" transform="translate(-103.27 241.48) rotate(-75)"/>
          <rect class="cls-1" x="98.08" y="62.92" width="81.41" height="3.43" transform="translate(40.43 181.96) rotate(-75)"/>
        </g>
        <g>
          <rect class="cls-1" x="182.23" y="102.16" width="3.43" height="81.41" transform="translate(-1.66 283.57) rotate(-75)"/>
          <rect class="cls-1" x="58.84" y="69.1" width="3.43" height="81.4" transform="translate(-61.18 139.87) rotate(-75)"/>
        </g>
      </g>
    </g>
  </g>
</svg>