<?xml version="1.0" encoding="UTF-8"?>
<svg id="Layer_1" data-name="Layer 1" xmlns="http://www.w3.org/2000/svg" viewBox="0 0 64.79 64.79">
  <defs>
    <style>
      .cls-1 {
        stroke-width: 0px;
      }
    </style>
  </defs>
  <path class="cls-1" d="m48.6,45.48c0-4.86-5.55-7.48-16.2-7.48h-11.57v-11.22h11.57c9.1,0,13.88-2.62,13.88-7.48s-5.09-7.48-14.66-7.48-14.66,2.62-14.66,7.48H.77C.77,6.85,11.73,0,31.63,0s30.85,6.85,30.85,19.31c0,5.61-2.78,9.84-8.18,12.71,6.94,2.74,10.49,7.35,10.49,13.46,0,12.46-11.57,19.31-32.4,19.31S0,57.94,0,45.48h16.2c0,4.86,5.55,7.48,16.2,7.48s16.2-2.62,16.2-7.48Z"/>
</svg>