<?xml version="1.0" encoding="UTF-8"?>
<svg id="Layer_1" data-name="Layer 1" xmlns="http://www.w3.org/2000/svg" viewBox="0 0 57.68 64.79">
  <defs>
    <style>
      .cls-1 {
        stroke-width: 0px;
      }
    </style>
  </defs>
  <path class="cls-1" d="m28.84,0c2.64,0,5.19.34,7.65,1.02,2.46.68,4.75,1.65,6.89,2.91,2.13,1.26,4.08,2.76,5.85,4.52,1.76,1.75,3.27,3.7,4.51,5.85,1.25,2.14,2.21,4.44,2.91,6.9.69,2.46,1.04,5.01,1.04,7.65s-.44,5.36-1.32,8.17c-.88,2.81-2.06,5.54-3.54,8.2-1.48,2.66-3.19,5.18-5.13,7.55-1.94,2.37-3.98,4.45-6.12,6.24-2.15,1.79-4.31,3.2-6.5,4.24-2.19,1.04-4.26,1.56-6.23,1.56-1.56,0-3.16-.3-4.81-.89-1.65-.6-3.29-1.42-4.93-2.49-1.65-1.06-3.26-2.33-4.84-3.8-1.58-1.47-3.08-3.09-4.5-4.84-1.42-1.75-2.73-3.62-3.91-5.59s-2.22-3.98-3.08-6.04c-.87-2.06-1.54-4.13-2.03-6.21-.49-2.08-.73-4.11-.73-6.11,0-2.64.35-5.19,1.04-7.65.69-2.46,1.66-4.76,2.91-6.9,1.25-2.15,2.74-4.09,4.5-5.85,1.75-1.75,3.7-3.26,5.85-4.52,2.14-1.25,4.44-2.23,6.9-2.91,2.46-.68,5.01-1.02,7.65-1.02ZM9.58,20.53c-1.82.52-3.16,1.42-4.01,2.71-.86,1.29-1.28,2.75-1.28,4.4,0,1.1.18,2.25.55,3.43s.9,2.34,1.59,3.48c.69,1.14,1.55,2.21,2.57,3.22,1.02,1.01,2.17,1.89,3.48,2.66,1.3.77,2.73,1.38,4.29,1.82,1.56.44,3.24.67,5.03.67-.26-4.22-.81-7.99-1.66-11.3-.37-1.41-.81-2.79-1.31-4.16-.51-1.36-1.12-2.58-1.82-3.64-.7-1.06-1.51-1.91-2.44-2.57-.92-.65-1.97-.97-3.13-.97-.3,0-.61.02-.91.05s-.62.1-.94.21Zm27.54,33.65c.24-.24.41-.44.5-.6.1-.16.15-.3.15-.41,0-.04-.02-.11-.07-.2,0-.17-.19-.26-.58-.26-.11-.02-.3-.03-.58-.03-.69,0-1.69.08-3,.23-1.31.15-2.87.23-4.69.23s-3.54-.09-4.89-.26c-1.35-.17-2.35-.26-3-.26-.2,0-.34.01-.42.03-.41.02-.62.16-.62.42,0,.07.02.16.07.29.04.09.09.2.14.34.05.14.19.3.41.47.26.3.64.64,1.14,1.02.5.38,1.1.74,1.82,1.07.71.34,1.52.62,2.42.84.9.23,1.88.34,2.94.34s2.04-.11,2.94-.34c.9-.23,1.7-.51,2.4-.84.7-.33,1.3-.69,1.8-1.07.5-.38.88-.72,1.14-1.02Zm-1.27-11.27c1.8,0,3.48-.22,5.03-.67,1.56-.44,2.99-1.05,4.29-1.82,1.3-.77,2.46-1.66,3.49-2.66,1.03-1.01,1.89-2.08,2.6-3.22.7-1.14,1.24-2.29,1.61-3.48s.55-2.32.55-3.43c0-1.65-.43-3.11-1.3-4.4-.87-1.29-2.22-2.19-4.06-2.71-.32-.11-.64-.18-.94-.21-.3-.03-.61-.05-.91-.05-1.17,0-2.21.32-3.13.97-.92.65-1.73,1.51-2.44,2.57-.7,1.06-1.31,2.27-1.83,3.64-.52,1.36-.95,2.75-1.3,4.16-.84,3.31-1.4,7.08-1.66,11.3Z"/>
</svg>