<?xml version="1.0" encoding="UTF-8"?>
<svg id="Layer_1" data-name="Layer 1" xmlns="http://www.w3.org/2000/svg" viewBox="0 0 44.18 44.18">
  <defs>
    <style>
      .cls-1 {
        stroke-width: 0px;
      }
    </style>
  </defs>
  <path class="cls-1" d="m21.11,0C36.23,0,44.18,7.9,44.18,22.09s-8.34,22.09-22.68,22.09C9.72,44.18,0,39,0,31.01h10.31c0,3.06,5.69,5.1,11.29,5.1,7.56,0,11.49-3.82,12.17-11.64-3.44,1.7-8.05,3.14-13.65,3.14C7.95,27.61,0,22.26,0,14.02S8.15,0,21.11,0Zm12.17,16.57c-1.37-5.78-5.2-8.5-12.17-8.5-6.58,0-10.8,2.38-10.8,5.95,0,3.82,4.02,5.95,11.59,5.95,4.61,0,8.54-1.7,11.39-3.4Z"/>
</svg>