<?xml version="1.0" encoding="UTF-8"?>
<svg id="Layer_1" data-name="Layer 1" xmlns="http://www.w3.org/2000/svg" viewBox="0 0 44.18 44.18">
  <defs>
    <style>
      .cls-1 {
        stroke-width: 0px;
      }
    </style>
  </defs>
  <path class="cls-1" d="m34.08,1.2c.22.15.34.32.34.53v11.28c0,1.91-.27,3.66-.8,5.25-.53,1.59-1.27,2.97-2.2,4.11-.94,1.15-2.04,2.05-3.31,2.7-1.27.65-2.64.98-4.09,1v10.47c.9-1,1.81-1.98,2.73-2.95.93-.96,1.87-1.89,2.82-2.78,1.03-.95,2.08-1.81,3.15-2.59s2.15-1.47,3.24-2.08c1.07-.59,2.18-1.13,3.34-1.62,1.16-.49,2.37-.91,3.62-1.27.06-.02.14-.03.25-.03.2,0,.39.06.55.17s.28.25.38.42c.06.15.09.27.09.36,0,.37-.17.66-.5.86-1.07.59-2.07,1.24-3.02,1.94-.95.7-1.85,1.45-2.71,2.22-1.61,1.5-3.13,3.3-4.57,5.39l-5.36,9.11c-.07.15-.19.26-.34.35-.15.08-.29.12-.42.12h-10.43c-.21,0-.38-.06-.52-.17-.14-.11-.27-.24-.38-.39-.67-1.28-1.26-2.38-1.77-3.31-.5-.93-.95-1.74-1.35-2.43-.39-.7-.75-1.3-1.07-1.81s-.63-1-.93-1.46c-.73-1.08-1.47-2.06-2.23-2.95-.76-.89-1.55-1.72-2.37-2.5-.84-.78-1.74-1.51-2.71-2.21-.96-.69-1.98-1.34-3.04-1.93-.32-.2-.48-.49-.48-.86,0-.09.02-.21.06-.36.09-.17.23-.31.41-.42s.36-.17.55-.17c.09,0,.17,0,.22.03,1.29.35,2.51.77,3.68,1.27,1.16.49,2.26,1.03,3.31,1.62,2.21,1.24,4.34,2.81,6.39,4.7.95.87,1.89,1.78,2.8,2.72.92.95,1.82,1.94,2.72,2.97v-10.47c-1.44,0-2.77-.32-4-.95s-2.3-1.51-3.21-2.65c-.92-1.14-1.65-2.51-2.2-4.12-.55-1.61-.88-3.39-1-5.34V1.67c0-.09.02-.19.06-.29s.11-.19.22-.26c.09-.07.2-.12.34-.13.13,0,.24-.01.34-.01.77.2,1.49.66,2.19,1.36.69.7,1.35,1.57,1.96,2.61.62,1.04,1.2,2.2,1.74,3.49s1.04,2.63,1.49,4.04c.45,1.41.85,2.83,1.22,4.25.36,1.43.68,2.79.94,4.09.21.24.47.43.79.56.32.13.65.19,1.01.19h.06c.37,0,.73-.07,1.07-.22s.61-.35.81-.61c.26-1.28.58-2.63.94-4.06.36-1.43.77-2.83,1.22-4.22.45-1.39.94-2.73,1.49-4.01s1.12-2.45,1.74-3.47c.62-1.03,1.27-1.88,1.95-2.57.68-.69,1.41-1.13,2.17-1.33.04-.02.09-.03.17-.03.19,0,.34.06.45.17Zm-12.48,14.56c-.62-2.54-1.32-4.81-2.1-6.83-.79-2.02-1.63-3.75-2.52-5.2-.06-.11-.09-.21-.09-.31,0-.11.06-.21.17-.31.65-.59,1.29-1.12,1.91-1.57.62-.45,1.22-.86,1.8-1.23C21.07.1,21.46,0,21.91,0,22.32,0,22.7.1,23.06.31c.65.41,1.3.86,1.93,1.36s1.3,1.05,1.99,1.64c.13.07.2.2.2.39,0,.11-.02.19-.06.22-.9,1.45-1.73,3.15-2.48,5.11-.76,1.97-1.45,4.21-2.09,6.72-.06.22-.22.33-.48.33-.09,0-.19-.03-.28-.1-.09-.06-.16-.14-.2-.24Z"/>
</svg>