<?xml version="1.0" encoding="UTF-8"?>
<svg id="Layer_1" data-name="Layer 1" xmlns="http://www.w3.org/2000/svg" viewBox="0 0 29.45 29.45">
  <defs>
    <style>
      .cls-1 {
        stroke-width: 0px;
      }
    </style>
  </defs>
  <path class="cls-1" d="m0,20.67c0-2.66,1.96-4.76,5.26-6.12-2.66-1.36-4.21-3.34-4.21-5.78C1.05,3.12,5.96,0,14.73,0s13.67,3.12,13.67,8.78c0,2.43-1.54,4.42-4.21,5.78,3.37,1.36,5.26,3.45,5.26,6.12,0,5.66-5.26,8.78-14.73,8.78S0,26.34,0,20.67Zm14.73,3.4c4.77,0,7.36-1.19,7.36-3.4s-2.52-3.4-7.36-3.4-7.36,1.19-7.36,3.4,2.52,3.4,7.36,3.4Zm-6.31-15.29c0,2.21,2.17,3.4,6.31,3.4s6.31-1.19,6.31-3.4-2.17-3.4-6.31-3.4-6.31,1.19-6.31,3.4Z"/>
</svg>