<?xml version="1.0" encoding="UTF-8"?>
<svg id="Layer_1" data-name="Layer 1" xmlns="http://www.w3.org/2000/svg" viewBox="0 0 37.39 29.45">
  <defs>
    <style>
      .cls-1 {
        stroke-width: 0px;
      }
    </style>
  </defs>
  <path class="cls-1" d="m32.61,4.78c.65,0,1.26.09,1.84.28.58.19,1.09.46,1.52.81s.78.79,1.04,1.3c.26.51.38,1.08.38,1.71v15.92c0,.62-.13,1.21-.38,1.77s-.6,1.06-1.04,1.49c-.44.43-.94.77-1.52,1.01-.58.25-1.19.37-1.84.37H4.78c-.63,0-1.23-.12-1.8-.37-.57-.25-1.08-.58-1.52-1.01-.44-.43-.8-.92-1.06-1.49-.26-.56-.39-1.15-.39-1.77v-15.31c0-.63.13-1.23.39-1.8.26-.57.62-1.07,1.06-1.5.44-.43.95-.77,1.52-1.03.57-.25,1.17-.38,1.8-.38h6.2l.77-2.12c.13-.36.33-.7.58-1.01.25-.32.53-.6.85-.85.31-.25.66-.44,1.03-.59.37-.14.74-.21,1.12-.21h6.83c.38,0,.75.07,1.12.21.37.14.71.33,1.03.58.31.24.6.52.85.85.25.32.43.66.55,1.03l.72,2.12h6.2ZM5.59,12.43c.32,0,.62-.06.9-.18.28-.12.54-.29.75-.51.22-.22.39-.47.51-.74s.18-.58.18-.89-.06-.61-.18-.89c-.12-.28-.29-.52-.51-.72-.22-.2-.47-.36-.75-.49-.29-.12-.59-.18-.9-.18s-.61.06-.89.18c-.28.12-.53.28-.74.49s-.39.44-.51.72c-.12.28-.18.58-.18.89s.06.61.18.89c.12.28.29.53.51.74s.47.39.74.51c.28.12.58.18.89.18Zm13.15,12.7c1.01,0,1.95-.19,2.82-.58s1.63-.9,2.29-1.56c.66-.65,1.17-1.42,1.55-2.31s.56-1.83.56-2.82-.19-1.93-.56-2.82-.89-1.66-1.55-2.31c-.65-.65-1.42-1.17-2.29-1.56s-1.81-.58-2.82-.58-1.93.19-2.82.58-1.66.9-2.31,1.56c-.65.65-1.17,1.42-1.56,2.31s-.58,1.83-.58,2.82.19,1.93.58,2.82.9,1.66,1.56,2.31c.65.66,1.42,1.17,2.31,1.56.89.38,1.83.58,2.82.58Zm0-11.91c.65,0,1.25.12,1.8.37s1.05.58,1.47,1c.42.42.75.91.99,1.48.24.56.36,1.16.36,1.79s-.12,1.23-.36,1.8c-.24.57-.57,1.07-.99,1.49-.42.42-.91.76-1.47,1s-1.16.37-1.8.37-1.25-.12-1.82-.37-1.06-.58-1.48-1c-.42-.42-.75-.92-.99-1.49-.24-.57-.36-1.17-.36-1.8s.12-1.23.36-1.79c.24-.56.57-1.06.99-1.48.42-.42.91-.76,1.48-1s1.17-.37,1.82-.37Z"/>
</svg>