<?xml version="1.0" encoding="UTF-8"?>
<svg id="Layer_1" data-name="Layer 1" xmlns="http://www.w3.org/2000/svg" viewBox="0 0 25.03 25.03">
  <defs>
    <style>
      .cls-1 {
        stroke-width: 0px;
      }
    </style>
  </defs>
  <path class="cls-1" d="m13.63,9.39c6.9,0,11.4,3.03,11.4,7.7s-4.62,7.94-11.96,7.94C4.51,25.03,0,20.56,0,12.52S4.73,0,12.85,0c6.68,0,11.07,2.94,11.07,7.46h-5.84c0-1.73-2.12-2.89-5.23-2.89-4.34,0-6.56,2.17-6.95,6.59,1.95-.96,4.56-1.78,7.73-1.78Zm5.56,7.7c0-2.17-2.28-3.37-6.56-3.37-2.62,0-4.84.96-6.45,1.93.78,3.27,2.95,4.81,6.95,4.81,3.67,0,6.06-1.35,6.06-3.37Z"/>
</svg>