<?xml version="1.0" encoding="UTF-8"?>
<svg id="Layer_1" data-name="Layer 1" xmlns="http://www.w3.org/2000/svg" viewBox="0 0 25.03 25.03">
  <defs>
    <style>
      .cls-1 {
        stroke-width: 0px;
      }
    </style>
  </defs>
  <path class="cls-1" d="m0,0h16.52c4.51,0,7.51,3,7.51,7.51,0,1.95-.85,3.6-2.25,4.71,2.05,1.05,3.25,2.9,3.25,5.31,0,4.51-3,7.51-7.51,7.51H0V0Zm16.52,10.26c1.5,0,2.5-1,2.5-2.5v-.75c0-1.5-1-2.5-2.5-2.5H5.01v5.76h11.51Zm-11.51,10.26h12.52c1.5,0,2.5-1,2.5-2.5v-.75c0-1.5-1-2.5-2.5-2.5H5.01v5.76Z"/>
</svg>