<?xml version="1.0" encoding="UTF-8"?>
<svg id="Layer_1" data-name="Layer 1" xmlns="http://www.w3.org/2000/svg" viewBox="0 0 13.25 13.25">
  <defs>
    <style>
      .cls-1 {
        stroke-width: 0px;
      }
    </style>
  </defs>
  <path class="cls-1" d="m0,9.3c0-1.2.88-2.14,2.37-2.75-1.2-.61-1.89-1.5-1.89-2.6C.47,1.4,2.68,0,6.63,0s6.15,1.4,6.15,3.95c0,1.1-.69,1.99-1.89,2.6,1.52.61,2.37,1.55,2.37,2.75,0,2.55-2.37,3.95-6.63,3.95S0,11.85,0,9.3Zm6.63,1.53c2.15,0,3.31-.54,3.31-1.53s-1.14-1.53-3.31-1.53-3.31.54-3.31,1.53,1.14,1.53,3.31,1.53ZM3.79,3.95c0,.99.98,1.53,2.84,1.53s2.84-.54,2.84-1.53-.98-1.53-2.84-1.53-2.84.54-2.84,1.53Z"/>
</svg>