<?xml version="1.0" encoding="UTF-8"?>
<svg id="Layer_1" data-name="Layer 1" xmlns="http://www.w3.org/2000/svg" viewBox="0 0 10.31 10.31">
  <defs>
    <style>
      .cls-1 {
        stroke-width: 0px;
      }
    </style>
  </defs>
  <path class="cls-1" d="m7.73,7.24c0-.77-.88-1.19-2.58-1.19h-1.84v-1.78h1.84c1.45,0,2.21-.42,2.21-1.19s-.81-1.19-2.33-1.19-2.33.42-2.33,1.19H.12C.12,1.09,1.87,0,5.03,0s4.91,1.09,4.91,3.07c0,.89-.44,1.57-1.3,2.02,1.1.44,1.67,1.17,1.67,2.14,0,1.98-1.84,3.07-5.15,3.07S0,9.22,0,7.24h2.58c0,.77.88,1.19,2.58,1.19s2.58-.42,2.58-1.19Z"/>
</svg>