<?xml version="1.0" encoding="UTF-8"?>
<svg id="Layer_1" data-name="Layer 1" xmlns="http://www.w3.org/2000/svg" viewBox="0 0 10.31 10.31">
  <defs>
    <style>
      .cls-1 {
        stroke-width: 0px;
      }
    </style>
  </defs>
  <path class="cls-1" d="m5.61,3.87c2.84,0,4.7,1.25,4.7,3.17s-1.9,3.27-4.92,3.27C1.86,10.31,0,8.47,0,5.15S1.95,0,5.29,0c2.75,0,4.56,1.21,4.56,3.07h-2.41c0-.71-.87-1.19-2.15-1.19-1.79,0-2.7.89-2.86,2.72.8-.4,1.88-.73,3.18-.73Zm2.29,3.17c0-.89-.94-1.39-2.7-1.39-1.08,0-1.99.4-2.66.79.32,1.35,1.21,1.98,2.86,1.98,1.51,0,2.5-.55,2.5-1.39Z"/>
</svg>