<?xml version="1.0" encoding="UTF-8"?>
<svg id="Layer_1" data-name="Layer 1" xmlns="http://www.w3.org/2000/svg" viewBox="0 0 13.25 11.78">
  <defs>
    <style>
      .cls-1 {
        stroke-width: 0px;
      }
    </style>
  </defs>
  <path class="cls-1" d="m12.55,4.38c.19.07.35.19.49.36.14.17.21.38.21.61v3.27c0,.29-.09.52-.26.7-.17.17-.39.26-.64.26h-.51v1.17c0,.13-.02.25-.07.37-.05.12-.11.22-.19.31-.08.09-.17.16-.28.21-.11.05-.22.08-.33.08s-.24-.02-.35-.06c-.11-.04-.21-.1-.31-.17-.09-.07-.16-.16-.21-.27s-.08-.22-.08-.35v-1.27H3.27v1.17c0,.13-.02.25-.07.38s-.11.23-.19.33-.17.17-.28.23c-.11.06-.22.09-.34.09s-.23-.03-.34-.08c-.11-.05-.21-.12-.31-.21-.09-.09-.16-.19-.22-.3-.06-.11-.08-.24-.08-.37v-1.23h-.48c-.13,0-.26-.02-.38-.07-.12-.05-.22-.11-.31-.2-.09-.09-.16-.19-.21-.31-.05-.12-.08-.25-.08-.4v-3.27c0-.25.07-.46.2-.64.14-.18.31-.3.52-.35L2.21.44c.05-.13.13-.24.24-.32.11-.08.23-.12.35-.12h7.58c.13,0,.25.04.36.12.11.08.19.19.24.32l1.55,3.92s.01,0,.01.02h0ZM2.5,7.42c.13,0,.25-.03.36-.08.11-.05.21-.13.29-.22.08-.09.15-.2.2-.32s.07-.26.07-.4-.02-.27-.07-.39-.11-.23-.2-.32c-.08-.09-.18-.16-.29-.22s-.23-.08-.36-.08-.24.03-.35.08c-.11.05-.21.13-.29.22-.08.09-.15.2-.2.32-.05.12-.08.25-.08.39s.03.27.08.4c.05.12.12.23.2.32.08.09.18.16.29.22.11.05.23.08.35.08Zm.75-5.98l-.92,2.88h8.63l-1.01-2.88H3.25Zm7.51,5.98c.13,0,.25-.03.36-.08.11-.05.21-.13.29-.22.08-.09.15-.2.2-.32.05-.12.07-.26.07-.4s-.02-.27-.07-.39c-.05-.12-.11-.23-.2-.32-.08-.09-.18-.16-.29-.22-.11-.05-.23-.08-.36-.08s-.24.03-.35.08-.21.13-.29.22c-.09.09-.15.2-.2.32s-.07.25-.07.39.02.27.07.4.12.23.2.32c.09.09.18.16.29.22.11.05.23.08.35.08Z"/>
</svg>