<svg width="58" height="65" viewBox="0 0 58 65" fill="none" xmlns="http://www.w3.org/2000/svg">
<g clip-path="url(#clip0_1_399)">
<path d="M28.84 5.49294e-06C31.48 5.49294e-06 34.03 0.340005 36.49 1.02001C38.95 1.70001 41.24 2.67001 43.38 3.93001C45.51 5.19001 47.46 6.69001 49.23 8.45001C50.99 10.2 52.5 12.15 53.74 14.3C54.99 16.44 55.95 18.74 56.65 21.2C57.34 23.66 57.69 26.21 57.69 28.85C57.69 31.49 57.25 34.21 56.37 37.02C55.49 39.83 54.31 42.56 52.83 45.22C51.35 47.88 49.64 50.4 47.7 52.77C45.76 55.14 43.72 57.22 41.58 59.01C39.43 60.8 37.27 62.21 35.08 63.25C32.89 64.29 30.82 64.81 28.85 64.81C27.29 64.81 25.69 64.51 24.04 63.92C22.39 63.32 20.75 62.5 19.11 61.43C17.46 60.37 15.85 59.1 14.27 57.63C12.69 56.16 11.19 54.54 9.77 52.79C8.35 51.04 7.04 49.17 5.86 47.2C4.68 45.23 3.64 43.22 2.78 41.16C1.91 39.1 1.24 37.03 0.749997 34.95C0.259997 32.87 0.0199966 30.84 0.0199966 28.84C0.0199966 26.2 0.369997 23.65 1.06 21.19C1.75 18.73 2.72 16.43 3.97 14.29C5.22 12.14 6.71 10.2 8.47 8.44001C10.22 6.69001 12.17 5.18001 14.32 3.92001C16.46 2.67001 18.76 1.69001 21.22 1.01001C23.68 0.330005 26.23 -0.00999451 28.87 -0.00999451L28.84 5.49294e-06ZM9.58 20.53C7.76 21.05 6.42 21.95 5.57 23.24C4.71 24.53 4.29 25.99 4.29 27.64C4.29 28.74 4.47 29.89 4.84 31.07C5.21 32.25 5.74 33.41 6.43 34.55C7.12 35.69 7.98 36.76 9 37.77C10.02 38.78 11.17 39.66 12.48 40.43C13.78 41.2 15.21 41.81 16.77 42.25C18.33 42.69 20.01 42.92 21.8 42.92C21.54 38.7 20.99 34.93 20.14 31.62C19.77 30.21 19.33 28.83 18.83 27.46C18.32 26.1 17.71 24.88 17.01 23.82C16.31 22.76 15.5 21.91 14.57 21.25C13.65 20.6 12.6 20.28 11.44 20.28C11.14 20.28 10.83 20.3 10.53 20.33C10.23 20.36 9.91 20.43 9.59 20.54L9.58 20.53ZM37.12 54.18C37.36 53.94 37.53 53.74 37.62 53.58C37.72 53.42 37.77 53.28 37.77 53.17C37.77 53.13 37.75 53.06 37.7 52.97C37.7 52.8 37.51 52.71 37.12 52.71C37.01 52.69 36.82 52.68 36.54 52.68C35.85 52.68 34.85 52.76 33.54 52.91C32.23 53.06 30.67 53.14 28.85 53.14C27.03 53.14 25.31 53.05 23.96 52.88C22.61 52.71 21.61 52.62 20.96 52.62C20.76 52.62 20.62 52.63 20.54 52.65C20.13 52.67 19.92 52.81 19.92 53.07C19.92 53.14 19.94 53.23 19.99 53.36C20.03 53.45 20.08 53.56 20.13 53.7C20.18 53.84 20.32 54 20.54 54.17C20.8 54.47 21.18 54.81 21.68 55.19C22.18 55.57 22.78 55.93 23.5 56.26C24.21 56.6 25.02 56.88 25.92 57.1C26.82 57.33 27.8 57.44 28.86 57.44C29.92 57.44 30.9 57.33 31.8 57.1C32.7 56.87 33.5 56.59 34.2 56.26C34.9 55.93 35.5 55.57 36 55.19C36.5 54.81 36.88 54.47 37.14 54.17L37.12 54.18ZM35.85 42.91C37.65 42.91 39.33 42.69 40.88 42.24C42.44 41.8 43.87 41.19 45.17 40.42C46.47 39.65 47.63 38.76 48.66 37.76C49.69 36.75 50.55 35.68 51.26 34.54C51.96 33.4 52.5 32.25 52.87 31.06C53.24 29.88 53.42 28.74 53.42 27.63C53.42 25.98 52.99 24.52 52.12 23.23C51.25 21.94 49.9 21.04 48.06 20.52C47.74 20.41 47.42 20.34 47.12 20.31C46.82 20.28 46.51 20.26 46.21 20.26C45.04 20.26 44 20.58 43.08 21.23C42.16 21.88 41.35 22.74 40.64 23.8C39.94 24.86 39.33 26.07 38.81 27.44C38.29 28.8 37.86 30.19 37.51 31.6C36.67 34.91 36.11 38.68 35.85 42.9V42.91Z" fill="black"/>
</g>
<defs>
<clipPath id="clip0_1_399">
<rect width="57.68" height="64.79" fill="white"/>
</clipPath>
</defs>
</svg>
