<?xml version="1.0" encoding="UTF-8"?>
<svg id="Layer_1" data-name="Layer 1" xmlns="http://www.w3.org/2000/svg" viewBox="0 0 107.5 107.5">
  <defs>
    <style>
      .cls-1 {
        stroke-width: 0px;
      }
    </style>
  </defs>
  <path class="cls-1" d="m85.1,73.8c0-8.27-9.85-11.78-32.25-11.78-35.39,0-50.61-8.68-50.61-29.56S20.16,0,53.75,0c30.91,0,51.51,13.23,51.51,33.08h-22.4c0-8.68-11.65-14.47-29.11-14.47-19.04,0-29.11,4.76-29.11,13.85,0,7.86,8.96,10.96,30.23,10.96,36.95,0,52.63,9.3,52.63,30.39s-18.81,33.7-53.75,33.7C21.5,107.5,0,94.27,0,74.42h22.4c0,8.68,12.54,14.47,31.35,14.47,20.38,0,31.36-5.37,31.36-15.09Z"/>
</svg>