<?xml version="1.0" encoding="UTF-8"?>
<svg id="Layer_1" data-name="Layer 1" xmlns="http://www.w3.org/2000/svg" viewBox="0 0 64.79 64.79">
  <defs>
    <style>
      .cls-1 {
        stroke-width: 0px;
      }
    </style>
  </defs>
  <path class="cls-1" d="m0,45.48c0-5.86,4.32-10.47,11.57-13.46-5.86-2.99-9.26-7.35-9.26-12.71C2.32,6.85,13.11,0,32.4,0s30.08,6.85,30.08,19.31c0,5.36-3.39,9.72-9.26,12.71,7.41,2.99,11.57,7.6,11.57,13.46,0,12.46-11.57,19.31-32.4,19.31S0,57.94,0,45.48Zm32.4,7.48c10.49,0,16.2-2.62,16.2-7.48s-5.55-7.48-16.2-7.48-16.2,2.62-16.2,7.48,5.55,7.48,16.2,7.48Zm-13.89-33.64c0,4.86,4.78,7.48,13.89,7.48s13.88-2.62,13.88-7.48-4.78-7.48-13.88-7.48-13.89,2.62-13.89,7.48Z"/>
</svg>