<?xml version="1.0" encoding="UTF-8"?>
<svg id="Layer_1" data-name="Layer 1" xmlns="http://www.w3.org/2000/svg" viewBox="0 0 44.18 44.18">
  <defs>
    <style>
      .cls-1 {
        stroke-width: 0px;
      }
    </style>
  </defs>
  <path class="cls-1" d="m24.05,16.57c12.17,0,20.12,5.35,20.12,13.59s-8.15,14.02-21.11,14.02C7.95,44.18,0,36.28,0,22.09S8.34,0,22.68,0C34.46,0,42.21,5.18,42.21,13.17h-10.31c0-3.06-3.73-5.1-9.23-5.1-7.66,0-11.58,3.82-12.27,11.64,3.44-1.7,8.05-3.14,13.65-3.14Zm9.82,13.59c0-3.82-4.02-5.95-11.58-5.95-4.61,0-8.54,1.7-11.39,3.4,1.37,5.78,5.2,8.5,12.27,8.5,6.48,0,10.7-2.38,10.7-5.95Z"/>
</svg>