<?xml version="1.0" encoding="UTF-8"?>
<svg id="Layer_1" data-name="Layer 1" xmlns="http://www.w3.org/2000/svg" viewBox="0 0 25.03 25.03">
  <defs>
    <style>
      .cls-1 {
        stroke-width: 0px;
      }
    </style>
  </defs>
  <path class="cls-1" d="m18.77,17.57c0-1.88-2.15-2.89-6.26-2.89h-4.47v-4.33h4.47c3.52,0,5.36-1.01,5.36-2.89s-1.97-2.89-5.66-2.89-5.66,1.01-5.66,2.89H.3C.3,2.65,4.53,0,12.22,0s11.92,2.65,11.92,7.46c0,2.17-1.07,3.8-3.16,4.91,2.68,1.06,4.05,2.84,4.05,5.2,0,4.81-4.47,7.46-12.52,7.46S0,22.39,0,17.57h6.26c0,1.88,2.15,2.89,6.26,2.89s6.26-1.01,6.26-2.89Z"/>
</svg>