<?xml version="1.0" encoding="UTF-8"?>
<svg id="Layer_1" data-name="Layer 1" xmlns="http://www.w3.org/2000/svg" viewBox="0 0 25.03 25.03">
  <defs>
    <style>
      .cls-1 {
        stroke-width: 0px;
      }
    </style>
  </defs>
  <path class="cls-1" d="m11.96,0c8.57,0,13.07,4.48,13.07,12.52s-4.73,12.52-12.85,12.52c-6.68,0-12.18-2.94-12.18-7.46h5.84c0,1.73,3.23,2.89,6.4,2.89,4.28,0,6.51-2.17,6.9-6.6-1.95.96-4.56,1.78-7.73,1.78C4.51,15.65,0,12.61,0,7.94S4.62,0,11.96,0Zm6.9,9.39c-.78-3.27-2.95-4.81-6.9-4.81-3.73,0-6.12,1.35-6.12,3.37,0,2.17,2.28,3.37,6.56,3.37,2.62,0,4.84-.96,6.45-1.92Z"/>
</svg>