<?xml version="1.0" encoding="UTF-8"?>
<svg id="Layer_1" data-name="Layer 1" xmlns="http://www.w3.org/2000/svg" viewBox="0 0 25.29 25.29">
  <defs>
    <style>
      .cls-1 {
        stroke: #000;
        stroke-miterlimit: 10;
        stroke-width: .26px;
      }
    </style>
  </defs>
  <path class="cls-1" d="m24.72,9.7c-.29-1.11-.71-2.15-1.26-3.12-.54-.97-1.2-1.85-1.96-2.64-.76-.79-1.6-1.47-2.53-2.04-.93-.56-1.93-1-3-1.31-1.07-.31-2.19-.47-3.34-.47s-2.26.16-3.33.47c-1.06.31-2.06.75-2.99,1.31-.93.56-1.77,1.24-2.53,2.04-.76.79-1.41,1.67-1.95,2.64-.54.97-.96,2.01-1.26,3.12-.3,1.11-.45,2.27-.45,3.47v6.19c0,.32.1.58.31.78.2.21.45.31.73.31.15,0,.3-.02.44-.04.14-.03.27-.07.38-.14.02,0,.02-.02.04-.03v2.17c0,.38.07.74.2,1.08.14.34.32.63.55.88.23.25.51.44.82.58.32.14.66.21,1.02.21s.69-.07,1.01-.21c.32-.14.59-.34.83-.58.24-.25.42-.54.56-.88.14-.34.21-.7.21-1.08v-5.48c0-.38-.07-.74-.21-1.08-.14-.34-.32-.63-.56-.88-.24-.25-.51-.44-.83-.59-.32-.14-.65-.21-1.01-.21s-.71.07-1.02.21c-.32.14-.59.34-.82.59-.18.19-.31.43-.43.68v-2.23c0-1,.12-1.96.36-2.9s.58-1.82,1.03-2.64c.44-.82.98-1.58,1.6-2.27.62-.69,1.32-1.28,2.08-1.77.76-.49,1.58-.87,2.46-1.15.88-.27,1.8-.41,2.75-.41s1.89.13,2.77.4c.88.27,1.7.64,2.47,1.13.77.48,1.46,1.06,2.08,1.74.62.67,1.16,1.42,1.6,2.23.44.82.79,1.69,1.03,2.63s.36,1.9.36,2.89v1.91c-.06-.08-.09-.17-.15-.24-.24-.25-.51-.44-.83-.59-.32-.14-.65-.21-1.01-.21s-.7.07-1.02.21c-.31.14-.59.34-.82.59-.24.25-.42.54-.55.88-.13.34-.2.7-.2,1.08v5.48c0,.38.07.74.2,1.08.13.34.32.63.55.88.24.25.51.44.82.58.31.14.65.21,1.02.21s.69-.07,1.01-.21c.32-.14.59-.34.83-.58.24-.25.42-.54.56-.88.14-.34.2-.7.2-1.08v-2.1s.06.05.1.06c.13.05.27.08.41.08.29,0,.55-.1.77-.31.22-.21.33-.47.33-.78v-6.19c0-1.2-.15-2.36-.44-3.47Z"/>
</svg>