<?xml version="1.0" encoding="UTF-8"?>
<svg id="Layer_1" data-name="Layer 1" xmlns="http://www.w3.org/2000/svg" viewBox="0 0 20.62 24.14">
  <defs>
    <style>
      .cls-1 {
        stroke-width: 0px;
      }
    </style>
  </defs>
  <path class="cls-1" d="m16.94,6.25c.57.28,1.08.61,1.54.99.45.38.84.83,1.15,1.36.32.52.56,1.12.73,1.8.17.68.26,1.45.26,2.32,0,.73-.08,1.43-.23,2.12-.15.69-.36,1.36-.61,2.01s-.56,1.27-.91,1.87-.71,1.16-1.1,1.69c-.39.53-.78,1.03-1.19,1.5-.41.46-.8.89-1.18,1.26-.37.37-.71.63-1.03.76s-.62.21-.91.21c-.31,0-.6-.06-.88-.17s-.54-.24-.79-.39c-.25-.14-.5-.27-.75-.39s-.48-.17-.72-.17-.49.06-.74.17-.49.24-.75.39c-.26.14-.52.27-.79.39s-.57.17-.88.17-.6-.07-.92-.21-.66-.39-1.03-.76c-.38-.38-.77-.8-1.18-1.26-.41-.46-.8-.96-1.19-1.5-.39-.53-.75-1.1-1.1-1.69-.35-.59-.65-1.22-.91-1.87s-.46-1.32-.61-2.01c-.15-.69-.23-1.4-.23-2.12,0-.87.09-1.64.26-2.32.17-.68.42-1.28.74-1.8.32-.52.7-.97,1.16-1.36.46-.38.97-.71,1.54-.99.27-.13.54-.22.82-.28.28-.05.55-.08.82-.08.43,0,.85.05,1.26.15.42.1.83.21,1.24.33.41.12.81.23,1.21.34.4.1.79.16,1.17.17,0-.07-.01-.14-.01-.21v-.21c0-.6.12-1.19.37-1.75.23-.52.55-.97.96-1.35.41-.38.88-.67,1.41-.88l.41,1.11c-.37.15-.7.36-.99.63-.29.27-.52.6-.69.97-.09.19-.16.39-.2.59s-.06.41-.06.61v.17c0,.05,0,.11.01.17.31-.07.62-.15.94-.25.32-.1.64-.19.96-.28s.65-.17.98-.23.66-.1.99-.1c.27,0,.54.03.82.08.28.05.56.15.83.28Zm-8.07-3.37c.18.32.3.61.37.86.07.25.1.47.1.67,0,.16-.02.3-.05.42-.03.12-.07.22-.11.3-.05.09-.1.17-.15.23-.03,0-.06.02-.09.02-.03,0-.07.01-.11.01h-.16c-.12,0-.28-.01-.46-.03-.18-.02-.39-.07-.62-.14-.23-.07-.49-.17-.76-.3-.27-.13-.57-.3-.88-.52-.7-.49-1.23-1.02-1.61-1.59-.38-.58-.56-1.17-.56-1.77,0-.35.07-.7.2-1.03.53.02,1.04.11,1.53.25s.93.34,1.35.59c.41.25.79.55,1.13.89s.63.72.88,1.14Z"/>
</svg>