<?xml version="1.0" encoding="UTF-8"?>
<svg id="Layer_1" data-name="Layer 1" xmlns="http://www.w3.org/2000/svg" viewBox="0 0 10.31 10.31">
  <defs>
    <style>
      .cls-1 {
        stroke-width: 0px;
      }
    </style>
  </defs>
  <path class="cls-1" d="m4.92,0c3.53,0,5.38,1.84,5.38,5.15s-1.95,5.15-5.29,5.15c-2.75,0-5.02-1.21-5.02-3.07h2.4c0,.71,1.33,1.19,2.63,1.19,1.76,0,2.68-.89,2.84-2.72-.8.4-1.88.73-3.18.73C1.86,6.44,0,5.19,0,3.27S1.9,0,4.92,0Zm2.84,3.87c-.32-1.35-1.21-1.98-2.84-1.98-1.54,0-2.52.55-2.52,1.39,0,.89.94,1.39,2.7,1.39,1.08,0,1.99-.4,2.66-.79Z"/>
</svg>