<?xml version="1.0" encoding="UTF-8"?>
<svg id="Layer_1" data-name="Layer 1" xmlns="http://www.w3.org/2000/svg" viewBox="0 0 10.31 10.31">
  <defs>
    <style>
      .cls-1 {
        stroke-width: 0px;
      }
    </style>
  </defs>
  <path class="cls-1" d="m0,0h6.8c1.86,0,3.09,1.24,3.09,3.09,0,.8-.35,1.48-.93,1.94.84.43,1.34,1.2,1.34,2.19,0,1.86-1.24,3.09-3.09,3.09H0V0Zm6.8,4.23c.62,0,1.03-.41,1.03-1.03v-.31c0-.62-.41-1.03-1.03-1.03H2.06v2.37h4.74Zm-4.74,4.23h5.15c.62,0,1.03-.41,1.03-1.03v-.31c0-.62-.41-1.03-1.03-1.03H2.06v2.37Z"/>
</svg>